{
  "accessors": [
    {
      "bufferView": 2,
      "componentType": 5126,
      "count": 149,
      "max": [
        28.999900817871094,
        49,
        50
      ],
      "min": [
        -11.002900123596191,
        9,
        0
      ],
      "type": "VEC3"
    },
    {
      "bufferView": 2,
      "byteOffset": 1788,
      "componentType": 5126,
      "count": 149,
      "max": [
        1,
        1,
        0.85569304227828979
      ],
      "min": [
        -1,
        -1,
        -1
      ],
      "type": "VEC3"
    },
    {
      "bufferView": 3,
      "componentType": 5126,
      "count": 149,
      "max": [
        0,
        0,
        0,
        1
      ],
      "min": [
        0,
        0,
        0,
        1
      ],
      "type": "VEC4"
    },
    {
      "bufferView": 0,
      "componentType": 5125,
      "count": 393,
      "max": [
        148
      ],
      "min": [
        0
      ],
      "type": "SCALAR"
    },
    {
      "bufferView": 2,
      "byteOffset": 3576,
      "componentType": 5126,
      "count": 3672,
      "max": [
        72.994003295898438,
        2,
        73.978996276855469
      ],
      "min": [
        53.006000518798828,
        -18,
        39
      ],
      "type": "VEC3"
    },
    {
      "bufferView": 2,
      "byteOffset": 47640,
      "componentType": 5126,
      "count": 3672,
      "max": [
        0.9961199164390564,
        0.99495589733123779,
        0.99308222532272339
      ],
      "min": [
        -0.99611955881118774,
        -0.99495571851730347,
        -0.99308168888092041
      ],
      "type": "VEC3"
    },
    {
      "bufferView": 3,
      "byteOffset": 2384,
      "componentType": 5126,
      "count": 3672,
      "max": [
        0.77346634864807129,
        0.95671761035919189,
        0.0085416259244084358,
        -1
      ],
      "min": [
        -0.81858384609222412,
        -0.94797748327255249,
        -0.99959778785705566,
        -1
      ],
      "type": "VEC4"
    },
    {
      "bufferView": 3,
      "byteOffset": 61136,
      "componentType": 5126,
      "count": 3672,
      "max": [
        1,
        1,
        1,
        1
      ],
      "min": [
        1,
        1,
        1,
        1
      ],
      "type": "VEC4"
    },
    {
      "bufferView": 1,
      "componentType": 5126,
      "count": 3672,
      "max": [
        0.68692135810852051,
        0.99994242191314697
      ],
      "min": [
        0.00015464160242117941,
        0.00014156103134155273
      ],
      "type": "VEC2"
    },
    {
      "bufferView": 0,
      "byteOffset": 1572,
      "componentType": 5125,
      "count": 3672,
      "max": [
        3671
      ],
      "min": [
        0
      ],
      "type": "SCALAR"
    },
    {
      "bufferView": 2,
      "byteOffset": 91704,
      "componentType": 5126,
      "count": 3670,
      "max": [
        -35,
        -5,
        8
      ],
      "min": [
        -55,
        -25,
        -12
      ],
      "type": "VEC3"
    },
    {
      "bufferView": 2,
      "byteOffset": 135744,
      "componentType": 5126,
      "count": 3670,
      "max": [
        0.99242067337036133,
        0.99242079257965088,
        0.99616259336471558
      ],
      "min": [
        -0.99242067337036133,
        -0.99242067337036133,
        -0.99616259336471558
      ],
      "type": "VEC3"
    },
    {
      "bufferView": 3,
      "byteOffset": 119888,
      "componentType": 5126,
      "count": 3670,
      "max": [
        0,
        0,
        0,
        1
      ],
      "min": [
        0,
        0,
        0,
        1
      ],
      "type": "VEC4"
    },
    {
      "bufferView": 0,
      "byteOffset": 16260,
      "componentType": 5125,
      "count": 3672,
      "max": [
        3669
      ],
      "min": [
        0
      ],
      "type": "SCALAR"
    }
  ],
  "asset": {
    "generator": "Sketchfab (OSG glTF plugin)",
    "version": "2.0"
  },
  "bufferViews": [
    {
      "buffer": 0,
      "byteLength": 30948,
      "byteOffset": 0,
      "name": "floatBufferViews",
      "target": 34963
    },
    {
      "buffer": 0,
      "byteLength": 29376,
      "byteOffset": 30948,
      "byteStride": 8,
      "name": "floatBufferViews",
      "target": 34962
    },
    {
      "buffer": 0,
      "byteLength": 179784,
      "byteOffset": 60324,
      "byteStride": 12,
      "name": "floatBufferViews",
      "target": 34962
    },
    {
      "buffer": 0,
      "byteLength": 178608,
      "byteOffset": 240108,
      "byteStride": 16,
      "name": "floatBufferViews",
      "target": 34962
    }
  ],
  "buffers": [
    {
      "byteLength": 418716,
      "uri": "scene.bin"
    }
  ],
  "images": [
    {
      "uri": "textures/Material_134_baseColor.png"
    }
  ],
  "materials": [
    {
      "doubleSided": true,
      "emissiveFactor": [
        0,
        0,
        0
      ],
      "name": "Material_22",
      "pbrMetallicRoughness": {
        "baseColorFactor": [
          0.91372500000000001,
          0.11372500000000001,
          0.17647099999999999,
          1
        ],
        "metallicFactor": 0,
        "roughnessFactor": 1
      }
    },
    {
      "doubleSided": true,
      "emissiveFactor": [
        0,
        0,
        0
      ],
      "name": "Material_134",
      "pbrMetallicRoughness": {
        "baseColorFactor": [
          1,
          1,
          1,
          1
        ],
        "baseColorTexture": {
          "index": 0,
          "texCoord": 0
        },
        "metallicFactor": 0,
        "roughnessFactor": 1
      }
    },
    {
      "doubleSided": true,
      "emissiveFactor": [
        0,
        0,
        0
      ],
      "name": "Material_20",
      "pbrMetallicRoughness": {
        "baseColorFactor": [
          0.27450999999999998,
          0.71764700000000003,
          0.286275,
          1
        ],
        "metallicFactor": 0,
        "roughnessFactor": 1
      }
    }
  ],
  "meshes": [
    {
      "name": "node_id34_Material_22_0",
      "primitives": [
        {
          "attributes": {
            "NORMAL": 1,
            "POSITION": 0,
            "TANGENT": 2
          },
          "indices": 3,
          "material": 0,
          "mode": 4
        }
      ]
    },
    {
      "name": "root_Material_134_0",
      "primitives": [
        {
          "attributes": {
            "COLOR_0": 7,
            "NORMAL": 5,
            "POSITION": 4,
            "TANGENT": 6,
            "TEXCOORD_0": 8
          },
          "indices": 9,
          "material": 1,
          "mode": 4
        }
      ]
    },
    {
      "name": "root_Material_20_0",
      "primitives": [
        {
          "attributes": {
            "NORMAL": 11,
            "POSITION": 10,
            "TANGENT": 12
          },
          "indices": 13,
          "material": 2,
          "mode": 4
        }
      ]
    }
  ],
  "nodes": [
    {
      "children": [
        1
      ],
      "name": "RootNode (gltf orientation matrix)",
      "rotation": [
        -0.70710678118654746,
        -0,
        -0,
        0.70710678118654757
      ]
    },
    {
      "children": [
        2
      ],
      "name": "RootNode (model correction matrix)"
    },
    {
      "children": [
        3
      ],
      "matrix": [
        1,
        0,
        0,
        0,
        0,
        0,
        1,
        0,
        0,
        -1,
        0,
        0,
        0,
        0,
        0,
        1
      ],
      "name": "633d839be1f44b9b9a1b75d8c25f8916.fbx"
    },
    {
      "children": [
        4,
        8,
        12
      ],
      "name": "RootNode"
    },
    {
      "children": [
        5
      ],
      "matrix": [
        0.0010000000474974513,
        0,
        0,
        0,
        0,
        1.7881392205820358e-10,
        -0.00099999981466679161,
        0,
        0,
        0.00099999981466679161,
        1.7881392205820358e-10,
        0,
        0,
        -0.25600001215934753,
        0.25600001215934753,
        1
      ],
      "name": "node_id34"
    },
    {
      "children": [
        7
      ],
      "matrix": [
        3.3684213161468506,
        0,
        -0,
        0,
        0,
        3.3684213161468506,
        0,
        0,
        0,
        0,
        3.3684213161468506,
        0,
        -35.368419647216797,
        -171.78948974609375,
        151.61434936523438,
        1
      ],
      "name": ""
    },
    {
      "mesh": 0,
      "name": "node_id34_Material_22_0"
    },
    {
      "children": [
        6
      ],
      "name": "Geode"
    },
    {
      "children": [
        9
      ],
      "name": "root"
    },
    {
      "children": [
        11
      ],
      "matrix": [
        0.0028124293312430382,
        -2.007735644404818e-10,
        0.0018537810537964106,
        0,
        0.0018537808045649125,
        8.5957924750109214e-10,
        -0.0028124289531260296,
        0,
        -3.0542803587900729e-10,
        0.0033684209920465868,
        8.2819093045279279e-10,
        0,
        0.014489395543932915,
        -0.1043856292963028,
        0.31544923782348633,
        1
      ],
      "name": ""
    },
    {
      "mesh": 1,
      "name": "root_Material_134_0"
    },
    {
      "children": [
        10
      ],
      "name": "Geode"
    },
    {
      "children": [
        13
      ],
      "name": "root"
    },
    {
      "children": [
        15
      ],
      "matrix": [
        0.0033684214577078819,
        0,
        0,
        0,
        0,
        6.0232063793475035e-10,
        -0.0033684209920465946,
        0,
        -0,
        0.0033684209920465946,
        6.0232063793475035e-10,
        0,
        -0.0353684201836586,
        -0.10438568890094757,
        0.42778950929641724,
        1
      ],
      "name": ""
    },
    {
      "mesh": 2,
      "name": "root_Material_20_0"
    },
    {
      "children": [
        14
      ],
      "name": "Geode"
    }
  ],
  "samplers": [
    {
      "magFilter": 9729,
      "minFilter": 9987,
      "wrapS": 10497,
      "wrapT": 10497
    }
  ],
  "scene": 0,
  "scenes": [
    {
      "name": "OSG_Scene",
      "nodes": [
        0
      ]
    }
  ],
  "textures": [
    {
      "sampler": 0,
      "source": 0
    }
  ]
}

